<svg width="18" height="14" viewBox="0 0 18 14" fill="none" xmlns="http://www.w3.org/2000/svg">
<path d="M3.25 0.3125C2.4875 0.3125 1.75623 0.615401 1.21707 1.15457C0.677901 1.69373 0.375 2.425 0.375 3.1875V3.47644L9 8.121L17.625 3.47788V3.1875C17.625 2.425 17.3221 1.69373 16.7829 1.15457C16.2438 0.615401 15.5125 0.3125 14.75 0.3125H3.25Z" fill="white"/>
<path d="M17.25 4L8.96569 8.46056C8.86098 8.51693 8.74392 8.54644 8.625 8.54644C8.50608 8.54644 8.38902 8.51693 8.28431 8.46056L0 4V10.7031C0 11.4656 0.302901 12.1968 0.842068 12.736C1.38123 13.2752 2.1125 13.5781 2.875 13.5781H14.375C15.1375 13.5781 15.8688 13.2752 16.4079 12.736C16.9471 12.1968 17.25 11.4656 17.25 10.7031V4Z" fill="white"/>
</svg>
