<svg width="156" height="66" viewBox="0 0 156 66" fill="none" xmlns="http://www.w3.org/2000/svg">
<path d="M48.5126 24.6743C48.4883 21.1069 47.3258 17.6401 45.1941 14.7779C45.1656 14.7184 45.1258 14.665 45.077 14.6205C43.6524 12.7179 41.9207 11.0654 39.953 9.73077C39.9015 9.68971 39.8474 9.65214 39.7909 9.61832C36.7408 7.58887 33.304 6.21058 29.6959 5.56979H29.6508C29.6273 5.56304 29.6023 5.56304 29.5788 5.56979C28.6783 5.39885 27.7102 5.27739 26.7556 5.19642C26.6836 3.20815 26.2738 1.98009 25.792 1.21537C25.6448 0.932775 25.4408 0.6835 25.1929 0.483059C24.9451 0.282618 24.6585 0.135304 24.3512 0.050293H24.2296H24.1486C23.8407 0.135495 23.5536 0.282842 23.3051 0.48323C23.0565 0.683619 22.8516 0.932792 22.7032 1.21537C22.2169 1.98009 21.8027 3.21264 21.7396 5.20092C12.3785 5.99263 4.58439 11.1073 1.47754 18.0258C1.45983 18.0621 1.44478 18.0997 1.43251 18.1382C0.513715 20.2046 0.0382373 22.4403 0.0366821 24.7013C0.0366821 30.0589 2.64373 35.0476 7.38506 38.7677C7.0601 40.8612 7.26283 43.0025 7.97491 44.998C6.85824 48.5966 5.86765 53.1895 7.74978 57.0941C7.75059 57.106 7.75059 57.1181 7.74978 57.13C9.92007 61.5834 14.1706 62.789 18.2816 63.9496C20.2384 64.4245 22.1434 65.092 23.9684 65.9423L24.0315 65.9693H24.072C24.1139 65.9737 24.1562 65.9737 24.1981 65.9693H24.2656C24.3474 65.9702 24.428 65.9501 24.4998 65.9109C26.3253 65.051 28.2318 64.3744 30.1912 63.8911C32.5326 63.2298 34.9235 62.5416 36.9452 61.2685L37.0037 61.228C38.611 60.2207 39.9004 58.7798 40.7229 57.0716C42.6276 53.1625 41.6235 48.6281 40.5698 45.1149C40.5623 45.0903 40.5501 45.0674 40.5338 45.0474C41.6055 42.4474 41.3083 39.6494 41.1687 38.7137C45.9055 35.0116 48.5126 30.0319 48.5126 24.6743ZM47.4995 24.6743C47.4985 26.1297 47.2908 27.5777 46.8826 28.9748C46.1628 27.5083 45.2363 26.1526 44.1315 24.9487C42.0827 22.6996 38.4581 19.9241 32.5776 18.8355C36.4354 17.3638 40.4248 16.2627 44.4917 15.5472C46.4218 18.2021 47.4734 21.3931 47.4995 24.6743ZM43.8208 14.643C38.535 15.5937 33.391 17.2094 28.5117 19.4517C28.1965 16.9012 27.0618 14.8949 25.5579 14.1617C25.6074 13.9817 25.648 13.8108 25.6885 13.6398C30.1622 12.1384 34.7845 11.122 39.4757 10.608C41.1113 11.7366 42.5748 13.0957 43.8208 14.643ZM37.9268 47.1122L37.6566 47.3506C36.692 48.1046 35.5573 48.6111 34.3516 48.8261H34.2931H34.1985H34.1715C31.6545 49.2759 28.3946 48.9385 24.4277 47.7734H24.3737H24.1756H24.135C22.3282 48.3251 20.4742 48.7091 18.5967 48.9205H18.5157C14.9991 49.2624 12.3515 48.6416 10.609 47.0492C8.58728 45.2859 8.20905 42.5194 8.20905 40.648C9.06519 42.2584 10.3429 43.6064 11.9058 44.5481C14.4948 46.0776 17.7592 46.3475 21.618 45.4073C21.8675 45.886 22.2439 46.2869 22.7061 46.5661C23.1683 46.8454 23.6985 46.9923 24.2386 46.9907C24.7782 46.9925 25.3078 46.8456 25.7694 46.5663C26.2309 46.2869 26.6064 45.8859 26.8547 45.4073C30.7135 46.3654 33.9824 46.0776 36.567 44.5481C38.132 43.609 39.4103 42.2604 40.2637 40.648C40.2997 42.5194 39.9215 45.2858 37.9268 47.1122ZM35.6754 60.8907C33.9288 61.7531 32.0928 62.4214 30.2002 62.8834C29.3369 62.0651 28.5954 61.1274 27.9984 60.099C27.0978 58.484 27.5481 56.7072 28.219 55.0248C28.3316 54.7369 28.4666 54.4265 28.6107 54.1026C29.16 52.8566 29.8174 51.3541 29.5923 49.9641C30.3305 50.0532 31.0731 50.0997 31.8166 50.1036C32.5629 50.1061 33.3083 50.0489 34.0455 49.9327C34.3291 50.7334 33.9239 52.1099 33.5592 53.3469C33.2492 54.2008 33.0627 55.0945 33.0053 56.0009C33.0042 56.9743 33.2482 57.9323 33.7148 58.7868C34.1813 59.6413 34.8556 60.3648 35.6754 60.8907ZM24.2701 64.9392C23.5407 64.3994 21.0147 62.3167 20.5284 58.9114C20.0781 55.8165 21.4064 52.4517 24.4412 48.9025C25.7813 49.2857 27.1437 49.5861 28.5207 49.8022C28.8809 50.9448 28.246 52.3888 27.6832 53.6708C27.5346 54.0127 27.395 54.3366 27.2779 54.6379C26.535 56.5498 25.9992 58.592 27.1158 60.5758C27.6618 61.5216 28.3227 62.3965 29.0835 63.1803C27.4277 63.6203 25.8152 64.209 24.2656 64.9392H24.2701ZM36.0627 43.6934C33.6402 45.1239 30.4973 45.3398 26.7421 44.3412C26.6759 44.3193 26.6059 44.3114 26.5365 44.318C26.4672 44.3245 26.3999 44.3453 26.339 44.3791C26.278 44.413 26.2248 44.459 26.1826 44.5144C26.1404 44.5698 26.1101 44.6334 26.0937 44.7011C25.9607 45.0788 25.7132 45.4057 25.3855 45.6363C25.0579 45.8669 24.6664 45.9897 24.2656 45.9876C23.8616 45.9907 23.4668 45.8663 23.1377 45.632C22.8087 45.3977 22.562 45.0656 22.433 44.6831C22.4159 44.618 22.3854 44.5573 22.3436 44.5046C22.3017 44.452 22.2494 44.4086 22.1899 44.3772C22.1255 44.3427 22.0548 44.3217 21.982 44.3155C21.9092 44.3093 21.8359 44.318 21.7666 44.3412C18.0204 45.3353 14.891 45.1194 12.4641 43.6934C10.5636 42.5211 9.14304 40.7112 8.4567 38.5878C8.86644 37.7601 10.8746 33.9994 15.3863 29.627C15.8681 29.3481 21.9918 26.0014 33.1539 29.654C37.6341 34.0039 39.6783 37.8051 40.0791 38.5923C39.3838 40.7102 37.959 42.513 36.0582 43.6799L36.0627 43.6934ZM20.9516 20.8957C20.9516 18.3181 21.8927 16.051 23.1715 15.2188C23.3106 15.1202 23.462 15.04 23.6217 14.9804C23.7807 14.9205 23.9476 14.8841 24.117 14.8724H24.3061C24.4783 14.8764 24.6486 14.9083 24.8104 14.9669C24.9691 15.0194 25.1204 15.092 25.2607 15.1828C26.3999 15.889 27.2824 17.7289 27.485 19.9196C27.5201 20.2438 27.5366 20.5697 27.5346 20.8957C27.5346 20.9497 27.5346 21.0082 27.5346 21.0667C27.5268 21.9026 27.4118 22.7341 27.1924 23.5408C27.0966 23.8757 26.9808 24.2047 26.8457 24.5259C26.2378 25.9699 25.2877 26.919 24.2341 26.919C23.1805 26.919 22.2304 25.9744 21.6226 24.5304C21.4771 24.1953 21.3582 23.8494 21.2668 23.4958C21.0455 22.6471 20.9394 21.7726 20.9516 20.8957ZM22.0188 26.9415C20.4954 27.0102 18.9848 27.2516 17.5161 27.6613C18.4842 26.8381 19.5693 25.9879 20.767 25.1332C21.0684 25.8083 21.4929 26.4215 22.0188 26.9415ZM26.3369 27.0855C26.9342 26.5408 27.4085 25.8753 27.7282 25.1332C29.079 26.1093 30.3307 27.1035 31.4474 28.0796C29.7717 27.6188 28.0632 27.2865 26.3369 27.0855ZM25.9181 12.4883C26.313 10.6926 26.5748 8.87035 26.7016 7.03625C27.6021 6.86082 28.5252 6.69437 29.4752 6.54143C32.5192 7.09115 35.4407 8.17879 38.1024 9.75327C33.9642 10.2817 29.8848 11.1974 25.9181 12.4883ZM23.4822 1.80465C23.6483 1.47941 23.9067 1.21029 24.2251 1.03093C24.5423 1.21175 24.8004 1.48048 24.968 1.80465C25.3012 2.36695 25.6434 3.36559 25.7155 5.08846C25.7155 5.40335 25.7155 5.74073 25.7155 6.10509V6.20855C25.7155 6.53694 25.6885 6.87881 25.666 7.25667C25.5028 9.14738 25.2018 11.0237 24.7654 12.8706C24.6934 13.199 24.6213 13.5319 24.5403 13.8783C24.436 13.862 24.3306 13.8545 24.2251 13.8558C24.1016 13.8579 23.9784 13.8669 23.8559 13.8828C23.8064 13.6713 23.7523 13.4644 23.7073 13.253C23.2931 11.4973 22.9923 9.71673 22.8068 7.92243C22.7707 7.56256 22.7437 7.22069 22.7302 6.8968C22.7167 6.57292 22.7032 6.357 22.6987 6.10509C22.6987 5.74073 22.6987 5.40335 22.6987 5.09296C22.8068 3.36559 23.1535 2.36695 23.4822 1.80465ZM21.7171 6.17706C21.7171 6.48745 21.7396 6.81583 21.7621 7.15321C12.5226 9.66329 6.80421 13.37 3.89548 15.7001C7.46161 10.5315 14.031 6.85182 21.7171 6.17706ZM2.32404 18.5206C2.67975 18.1382 4.67894 16.069 8.6278 13.7118C12.7665 11.2886 17.2131 9.43357 21.8477 8.19683C22.0539 10.0254 22.3696 11.84 22.7933 13.6309C17.7951 15.5443 13.1805 18.3369 9.16813 21.8764C5.11571 25.547 3.05348 28.9658 2.22048 30.6122C1.41217 28.6967 1.00478 26.6362 1.02336 24.5575C1.04195 22.4788 1.48612 20.4259 2.32855 18.5251L2.32404 18.5206ZM2.77431 31.7997C3.40468 30.3783 7.92089 21.1431 21.7216 15.1558C20.6365 16.4243 19.943 18.4981 19.943 20.8912C19.9324 21.9782 20.0841 23.0608 20.3933 24.103C12.3785 29.744 8.72686 35.8483 7.72276 37.7421C5.6777 36.1253 3.99109 34.1018 2.76981 31.7997H2.77431ZM8.6278 46.2935C8.98653 46.8681 9.41952 47.3929 9.91557 47.8544C10.758 48.6155 11.7547 49.1863 12.8378 49.5278C11.7779 49.863 10.8037 50.4248 9.98311 51.1742C8.98064 52.1385 8.28388 53.3758 7.97942 54.7324C7.30852 51.9524 7.86235 48.9205 8.60529 46.2935H8.6278ZM8.72686 56.7702C9.01503 49.9686 15.3863 50.0721 15.6655 50.0811C15.713 50.0828 15.7605 50.0751 15.8051 50.0586C16.1428 50.0586 16.4895 50.0856 16.8407 50.0586C14.7515 51.705 13.4862 53.6123 13.081 55.749C12.7522 57.6744 13.0439 59.6544 13.914 61.4035C11.7527 60.4813 9.89756 59.1453 8.70435 56.7702H8.72686ZM15.4133 61.9928C15.0396 61.4215 13.5267 58.8844 14.0941 55.947C14.5443 53.6663 16.1068 51.6555 18.7679 49.9686C20.1537 49.8197 21.5263 49.5671 22.8743 49.2129C20.2132 52.6452 19.083 55.9605 19.5333 59.0553C19.8087 60.8538 20.5788 62.5404 21.7576 63.9271C20.6995 63.5582 19.6189 63.2523 18.5562 62.9509C17.4936 62.6495 16.4084 62.3436 15.4133 61.9928ZM36.6795 60.2699C35.8828 59.866 35.2137 59.2495 34.7464 58.4888C34.279 57.7282 34.0317 56.853 34.0319 55.9605C34.0971 55.1602 34.2682 54.3721 34.5408 53.6168C34.955 52.2313 35.3738 50.8053 35.0631 49.7167C35.8991 49.5136 36.7003 49.1877 37.4405 48.7496C37.4405 52.6317 39.5793 54.3006 40.4708 54.8314C40.3187 55.4659 40.0999 56.0827 39.8179 56.6712C39.1081 58.132 38.0179 59.3751 36.6615 60.2699H36.6795ZM40.6824 53.7518C39.8044 53.1085 38.2555 51.4666 38.4896 47.9804L38.6337 47.8544C39.1131 47.4149 39.5324 46.9143 39.8809 46.3654C40.5023 48.6416 41.0111 51.2507 40.6644 53.7518H40.6824ZM40.795 37.7556C39.8089 35.8933 36.1707 29.8115 28.1154 24.148C28.4411 23.0949 28.6021 21.9979 28.5927 20.8957C28.5927 20.7878 28.5927 20.6753 28.5927 20.5718C29.2996 20.23 30.0291 19.8971 30.781 19.5867C37.3414 20.3694 41.2452 23.2799 43.366 25.5965C44.6712 26.992 45.7022 28.6202 46.4053 30.3963C45.1937 33.292 43.2551 35.8267 40.777 37.7556H40.795Z" fill="#3F4E65"/>
<path d="M17.529 35.9868C16.0296 35.9868 14.6878 36.6436 14.1835 37.6242C14.1235 37.7437 14.113 37.8819 14.1543 38.0091C14.1956 38.1362 14.2854 38.242 14.4041 38.3035C14.4756 38.3387 14.5541 38.3572 14.6338 38.3574C14.7268 38.3577 14.8182 38.3322 14.8977 38.2837C14.9771 38.2353 15.0416 38.1658 15.084 38.083C15.4127 37.4443 16.4348 36.9944 17.529 36.9944C18.6231 36.9944 19.6453 37.4443 19.9785 38.083C20.0085 38.1422 20.0499 38.1949 20.1004 38.238C20.1509 38.2812 20.2094 38.3139 20.2726 38.3344C20.3357 38.3549 20.4023 38.3627 20.4685 38.3574C20.5348 38.3521 20.5993 38.3338 20.6584 38.3035C20.7783 38.242 20.8689 38.1354 20.9103 38.0072C20.9517 37.879 20.9404 37.7396 20.879 37.6197C20.3657 36.6436 19.0149 35.9868 17.529 35.9868Z" fill="#3F4E65"/>
<path d="M30.9785 35.9868C29.4791 35.9868 28.1328 36.6436 27.633 37.6242C27.6021 37.6831 27.5833 37.7476 27.5777 37.8139C27.572 37.8802 27.5797 37.947 27.6003 38.0102C27.6208 38.0735 27.6538 38.132 27.6973 38.1824C27.7409 38.2328 27.794 38.2739 27.8537 38.3035C27.9251 38.3387 28.0036 38.3572 28.0833 38.3574C28.1764 38.3577 28.2677 38.3322 28.3472 38.2837C28.4267 38.2353 28.4912 38.1658 28.5336 38.083C28.8623 37.4443 29.8844 36.9944 30.9785 36.9944C32.0727 36.9944 33.0948 37.4443 33.428 38.083C33.458 38.1422 33.4995 38.1949 33.55 38.238C33.6004 38.2812 33.6589 38.3139 33.7221 38.3344C33.7853 38.3549 33.8519 38.3627 33.9181 38.3574C33.9843 38.3521 34.0488 38.3338 34.1079 38.3035C34.227 38.2411 34.3168 38.1345 34.3581 38.0066C34.3994 37.8788 34.3887 37.7398 34.3285 37.6197C33.8197 36.6436 32.4734 35.9868 30.9785 35.9868Z" fill="#3F4E65"/>
<path d="M63.8706 29.0774C67.1621 29.0774 70.7282 30.8767 71.3406 35.1097H67.3467C66.7793 33.4993 65.5726 32.7705 63.8706 32.7705C61.4887 32.7705 59.9217 34.5699 59.9217 37.1924C59.9217 39.5316 61.4662 41.5693 63.8706 41.5963C65.5996 41.5963 66.982 40.7327 67.4142 39.0323H71.4081C70.8182 43.5306 67.2566 45.2895 63.8706 45.2895C59.8182 45.312 55.7432 42.5905 55.7207 37.1924C55.6982 31.7944 59.8317 29.0774 63.8706 29.0774Z" fill="#3F4E65"/>
<path d="M77.7658 44.6959L80.2513 39.5767L74.9066 29.8513V29.2395H79.4453L82.4441 35.0874H82.5567L85.2808 29.2395H89.7069V29.8513L82.1469 45.1457H77.7658V44.6959Z" fill="#3F4E65"/>
<path d="M94.7049 45.1455H90.7291V44.5562L97.8793 29.0684H99.6129L106.817 44.5427V45.1455H102.841L98.7574 35.8474L94.7049 45.1455Z" fill="#3F4E65"/>
<path d="M108.668 32.8875V29.2573H120.469V32.8875H116.588V45.1456H112.572V32.8875H108.668Z" fill="#3F4E65"/>
<path d="M133.5 43.1347H127.237L126.305 45.1455H122.333V44.5562L129.484 29.0684H131.231L138.404 44.5562V45.1455H134.432L133.5 43.1347ZM130.348 35.4875L128.547 39.662H132.181L130.348 35.4875Z" fill="#3F4E65"/>
<path d="M156 45.1456H151.844V38.7579H146.941V45.1456H142.789V29.2573H146.941V35.0152H151.844V29.2573H156V45.1456Z" fill="#3F4E65"/>
</svg>
