<svg width="18" height="14" viewBox="0 0 18 14" fill="none" xmlns="http://www.w3.org/2000/svg">
<path d="M3.37499 0.333252H14.625C15.3168 0.333207 15.9823 0.59788 16.4852 1.07298C16.988 1.54808 17.29 2.19758 17.3292 2.88825L17.3333 3.04158V10.9583C17.3334 11.65 17.0687 12.3156 16.5936 12.8184C16.1185 13.3213 15.469 13.6233 14.7783 13.6624L14.625 13.6666H3.37499C2.68321 13.6666 2.01763 13.402 1.5148 12.9269C1.01196 12.4518 0.709989 11.8023 0.670823 11.1116L0.666656 10.9583V3.04158C0.666611 2.3498 0.931285 1.68423 1.40638 1.18139C1.88148 0.678558 2.53098 0.376584 3.22166 0.337419L3.37499 0.333252H14.625H3.37499ZM16.0833 4.81075L9.29166 8.38575C9.21497 8.42626 9.13069 8.45037 9.04418 8.45654C8.95767 8.46271 8.87082 8.4508 8.78916 8.42159L8.70916 8.38658L1.91666 4.81158V10.9583C1.91667 11.3242 2.0543 11.6768 2.30222 11.9461C2.55015 12.2153 2.89024 12.3815 3.25499 12.4116L3.37499 12.4166H14.625C14.9911 12.4166 15.3438 12.2788 15.6131 12.0307C15.8823 11.7826 16.0484 11.4423 16.0783 11.0774L16.0833 10.9583V4.81075ZM14.625 1.58325H3.37499C3.009 1.58327 2.65639 1.72089 2.38716 1.96882C2.11794 2.21674 1.95177 2.55683 1.92166 2.92159L1.91666 3.04158V3.39908L8.99999 7.12659L16.0833 3.39825V3.04158C16.0833 2.67546 15.9455 2.32274 15.6975 2.0535C15.4494 1.78425 15.1091 1.61817 14.7442 1.58825L14.625 1.58325Z" fill="#3F4E65"/>
</svg>
