<svg width="17" height="11" viewBox="0 0 17 11" fill="none" xmlns="http://www.w3.org/2000/svg">
<path fill-rule="evenodd" clip-rule="evenodd" d="M12.1191 0.553253C13.593 0.895271 14.1569 1.75713 14.8637 2.94336H12.1191V0.553253ZM3.50552 3.04297C3.79411 3.04297 4.00357 3.18227 4.00357 3.50781C4.00357 3.78239 3.78139 4.00508 3.50695 4.00586H0.498047C0.222954 4.00586 0 4.22894 0 4.50391C0 4.779 0.222954 5.00195 0.498047 5.00195H4.98047C5.25816 5.00195 5.48046 5.22478 5.48046 5.5C5.48046 5.77509 5.25751 5.99805 4.98241 5.99805H0.498047C0.222954 5.99805 0 6.221 0 6.49609C0 6.77119 0.222954 6.99414 0.498047 6.99414H1.59375V8.48828C1.59375 8.76337 1.8167 8.98633 2.0918 8.98633H3.09295C3.27142 9.86543 4.04819 10.5137 4.96387 10.5137C5.87955 10.5137 6.65632 9.86543 6.83479 8.98633H11.8918C12.0702 9.86543 12.847 10.5137 13.7627 10.5137C14.6784 10.5137 15.4551 9.86543 15.6336 8.98633H16.502C16.777 8.98633 17 8.76337 17 8.48828V5.5C17 4.03867 15.4586 3.94166 15.4572 3.93945H11.6211C11.346 3.93945 11.123 3.7165 11.123 3.44141V0.453125H2.0918C1.8167 0.453125 1.59375 0.676079 1.59375 0.951172V2.04688H0.996094C0.721001 2.04688 0.498047 2.26983 0.498047 2.54492C0.498047 2.82001 0.721001 3.04297 0.996094 3.04297H3.50552ZM14.4083 7.95885C14.7649 8.31539 14.7649 8.89372 14.4083 9.25027C13.8348 9.8238 12.8496 9.41576 12.8496 8.60449C12.8496 7.79335 13.8348 7.38531 14.4083 7.95885ZM5.60951 7.95885C5.96606 8.31539 5.96606 8.89372 5.60951 9.25027C5.03598 9.8238 4.05078 9.41576 4.05078 8.60449C4.05078 7.79335 5.03598 7.38531 5.60951 7.95885Z" fill="#3F4E65"/>
</svg>
