<svg width="16" height="16" viewBox="0 0 16 16" fill="none" xmlns="http://www.w3.org/2000/svg">
<path fill-rule="evenodd" clip-rule="evenodd" d="M7.50023 1.6501C5.94872 1.6501 4.46075 2.26644 3.36366 3.36352C2.26657 4.46061 1.65023 5.94858 1.65023 7.5001C1.65023 9.05161 2.26657 10.5396 3.36366 11.6367C4.46075 12.7338 5.94872 13.3501 7.50023 13.3501C9.05175 13.3501 10.5397 12.7338 11.6368 11.6367C12.7339 10.5396 13.3502 9.05161 13.3502 7.5001C13.3502 5.94858 12.7339 4.46061 11.6368 3.36352C10.5397 2.26644 9.05175 1.6501 7.50023 1.6501ZM2.44442 2.44428C3.78531 1.1034 5.60394 0.350098 7.50023 0.350098C9.39653 0.350098 11.2152 1.1034 12.556 2.44428C13.8969 3.78517 14.6502 5.6038 14.6502 7.5001C14.6502 9.17723 14.061 10.7936 12.9972 12.0725L15.9897 15.0703L15.0696 15.9887L12.0784 12.9922C10.7987 14.0591 9.17991 14.6501 7.50023 14.6501C5.60394 14.6501 3.78531 13.8968 2.44442 12.5559C1.10354 11.215 0.350235 9.39639 0.350235 7.5001C0.350235 5.6038 1.10354 3.78517 2.44442 2.44428Z" fill="white"/>
</svg>
